<svg xmlns="http://www.w3.org/2000/svg" width="800" height="800" viewBox="0 0 16 16"><path fill="none" d="M0 0h16v16H0z"/><path d="M9.27 3H6.73l-.319.25h3.175L9.27 3zM7.373 5H4.192l-.319.25h3.184L7.373 5zm1.263-2.5H7.367l-.319.25h1.903l-.315-.25zM10.542 4H5.461l-.319.25h5.712L10.542 4zm-.637-.5H6.098l-.318.25h4.444l-.319-.25zM8.002 2l-.319.25h.634L8.002 2zm3.49 2.75-.319-.25H8.002l.312.25h3.178zm-3.49-.25H4.827l-.319.25h3.181l.313-.25zM9.57 5.75h3.094l.044-.044-.263-.206H9.258l.312.25zm-.628-.5h3.184L11.808 5H8.63l.312.25zm2.975 1.25h-1.403l.312.25h.837l.254-.25zm-.775.5.153.122.122-.122h-.275zM6.433 5.75l.312-.25H3.558l-.263.206.044.044h3.094zm5.984.25H9.886l.312.25h1.966l.253-.25zm-6.928.5H4.086l.25.25h.838l.315-.25zm-.903.5.122.122L4.861 7h-.275zm1.531-1H3.586l.25.25h1.966L6.117 6zm1.885 5.5L4.708 8.878l-1.416 1.416L8.002 14l4.706-3.706-1.416-1.416-3.29 2.622z"/></svg>