<svg xmlns="http://www.w3.org/2000/svg" width="800" height="800" viewBox="0 0 16 16"><path fill="none" d="M0 0h16v16H0z"/><path d="M11.292 8.878 11.139 9h.275l-.122-.122zm.872.872h-1.966l-.312.25h2.531l-.253-.25zm-.5-.5h-.837l-.313.25h1.403l-.253-.25zM8.627 11h3.181l.319-.25H8.939l-.312.25zm-.629 3 .319-.25h-.634l.315.25zM6.73 13h2.54l.319-.25H6.411l.319.25zm-.635-.5h3.809l.319-.25H5.777l.318.25zm1.269 1h1.269l.319-.25H7.048l.316.25zM5.458 12h5.078l.319-.25H5.142l.316.25zm-.95-.75.319.25h3.172l-.312-.25H4.508zm5.059-1-.312.25h3.188l.262-.206-.044-.044H9.567zM7.998 11.5h3.175l.319-.25H8.311l-.313.25zM4.705 8.878 4.583 9h.275l-.153-.122zm.468.372h-.837l-.25.25h1.403l-.316-.25zm1.885 1.5H3.87l.319.25H7.37l-.312-.25zm-.628-.5H3.336l-.044.044.263.206h3.188l-.313-.25zm-.628-.5H3.836l-.25.25h2.531l-.315-.25zM7.998 4.5l3.294 2.622 1.416-1.416L7.998 2 3.292 5.706l1.416 1.416L7.998 4.5z"/></svg>